<svg width="20" height="20" viewBox="0 0 20 20" fill="none" xmlns="http://www.w3.org/2000/svg">
<path d="M16.6654 8.33268C16.6654 12.4935 12.0495 16.8268 10.4995 18.1652C10.3551 18.2738 10.1794 18.3325 9.9987 18.3325C9.81803 18.3325 9.64228 18.2738 9.49786 18.1652C7.94786 16.8268 3.33203 12.4935 3.33203 8.33268C3.33203 6.56457 4.03441 4.86888 5.28466 3.61864C6.5349 2.36839 8.23059 1.66602 9.9987 1.66602C11.7668 1.66602 13.4625 2.36839 14.7128 3.61864C15.9629 4.86888 16.6654 6.56457 16.6654 8.33268Z" stroke="#99A1AF" stroke-width="1.66667" stroke-linecap="round" stroke-linejoin="round"/>
<path d="M10 10.834C11.3807 10.834 12.5 9.71473 12.5 8.33398C12.5 6.95328 11.3807 5.83398 10 5.83398C8.61925 5.83398 7.5 6.95328 7.5 8.33398C7.5 9.71473 8.61925 10.834 10 10.834Z" stroke="#99A1AF" stroke-width="1.66667" stroke-linecap="round" stroke-linejoin="round"/>
</svg>
