<svg width="20" height="20" viewBox="0 0 20 20" fill="none" xmlns="http://www.w3.org/2000/svg">
<g clip-path="url(#clip0_6_2142)">
<path d="M1.71809 10.2875C1.64866 10.1004 1.64866 9.89465 1.71809 9.70759C2.39436 8.06784 3.54228 6.66581 5.01633 5.67924C6.49037 4.69268 8.22417 4.16602 9.9979 4.16602C11.7716 4.16602 13.5054 4.69268 14.9795 5.67924C16.4535 6.66581 17.6014 8.06784 18.2777 9.70759C18.3471 9.89465 18.3471 10.1004 18.2777 10.2875C17.6014 11.9272 16.4535 13.3292 14.9795 14.3158C13.5054 15.3024 11.7716 15.829 9.9979 15.829C8.22417 15.829 6.49037 15.3024 5.01633 14.3158C3.54228 13.3292 2.39436 11.9272 1.71809 10.2875Z" stroke="#99A1AF" stroke-width="1.66629" stroke-linecap="round" stroke-linejoin="round"/>
<path d="M9.99749 12.4969C11.3779 12.4969 12.4969 11.3779 12.4969 9.99749C12.4969 8.61708 11.3779 7.49805 9.99749 7.49805C8.61708 7.49805 7.49805 8.61708 7.49805 9.99749C7.49805 11.3779 8.61708 12.4969 9.99749 12.4969Z" stroke="#99A1AF" stroke-width="1.66629" stroke-linecap="round" stroke-linejoin="round"/>
</g>
<defs>
<clipPath id="clip0_6_2142">
<rect width="19.9955" height="19.9955" fill="white"/>
</clipPath>
</defs>
</svg>
